<?xml version="1.0" standalone="no"?>
<!DOCTYPE svg PUBLIC "-//W3C//DTD SVG 20010904//EN"
 "http://www.w3.org/TR/2001/REC-SVG-20010904/DTD/svg10.dtd">
<svg version="1.0" xmlns="http://www.w3.org/2000/svg"
 width="200.000000pt" height="200.000000pt" viewBox="0 0 200.000000 200.000000"
 preserveAspectRatio="xMidYMid meet">
<metadata>
Created by potrace 1.11, written by Peter Selinger 2001-2013
</metadata>
<g transform="translate(0.000000,200.000000) scale(0.100000,-0.100000)"
fill="#000000" stroke="none">
<path d="M331 1781 c-5 -9 -9 -364 -9 -789 1 -659 3 -775 15 -788 12 -12 104
-14 621 -11 l607 2 38 23 c75 47 71 6 72 772 1 434 -3 694 -9 710 -15 37 -37
60 -76 80 -32 16 -83 17 -643 17 -549 0 -609 -1 -616 -16z m199 -550 c0 -275
3 -506 6 -515 10 -25 53 -20 58 7 3 12 4 244 3 515 l-2 492 477 0 477 0 28
-24 28 -24 0 -680 c0 -676 0 -681 -21 -709 l-21 -28 -482 -1 -481 -1 -1 26
c-1 14 -1 73 -1 131 0 111 -7 140 -37 140 -28 0 -31 -18 -31 -164 l0 -133 -69
0 -69 0 0 733 0 734 69 0 69 0 0 -499z"/>
<path d="M894 1383 c-16 -16 -3 -52 19 -54 59 -4 339 1 347 6 14 9 13 41 -2
52 -8 6 -86 10 -181 10 -133 0 -171 -3 -183 -14z"/>
<path d="M1028 1212 c-110 -2 -129 -5 -137 -20 -22 -40 -1 -46 176 -47 92 -1
176 2 186 7 20 10 23 46 5 53 -21 8 -94 10 -230 7z"/>
</g>
</svg>
